<?xml version="1.0" encoding="UTF-8"?>
<svg version="1.1" xmlns="http://www.w3.org/2000/svg" width="1040" height="947">
<path d="M0 0 C3.07767309 1.34358632 4.83652142 2.70996154 6.9375 5.3125 C14.5741759 14.30644378 23.01999184 22.44393863 32.265625 29.765625 C35.22898755 32.18711554 38.02297163 34.7589304 40.8125 37.375 C47.22800311 43.33914554 54.01042824 48.72697965 61 54 C62.00111816 54.76183594 62.00111816 54.76183594 63.02246094 55.5390625 C104.79541251 87.16576336 153.22527011 105.95650624 205 113 C205.81307617 113.11714355 206.62615234 113.23428711 207.46386719 113.35498047 C236.96643179 117.44209985 268.44642093 116.0477635 298 113 C298.75507283 117.03309127 299.12518184 120.8406121 299.12584114 124.94153881 C299.12975276 126.7005635 299.12975276 126.7005635 299.13374341 128.49512404 C299.13151268 129.77437028 299.12928196 131.05361653 299.12698364 132.37162781 C299.12813634 133.75174638 299.12972487 135.13186464 299.13171089 136.51198226 C299.13588479 140.30003987 299.13382213 144.08807228 299.13072467 147.87612998 C299.12846246 151.96451543 299.13195459 156.05289654 299.13470459 160.14128113 C299.13915496 168.15463581 299.13818834 176.16798113 299.13529195 184.18133619 C299.13303174 190.70603879 299.13272809 197.23073878 299.13381577 203.75544167 C299.13404561 205.14963713 299.13404561 205.14963713 299.13428011 206.57199815 C299.13459985 208.46058021 299.13492407 210.34916226 299.1352527 212.23774431 C299.1381062 229.96184255 299.13482423 247.68593563 299.12945233 265.41003302 C299.12499987 280.56787293 299.12574756 295.72570516 299.13037109 310.88354492 C299.13574593 328.51252917 299.13781527 346.14150886 299.13475883 363.77049381 C299.13444032 365.65847162 299.13412595 367.54644944 299.13381577 369.43442726 C299.13366149 370.36312738 299.13350721 371.29182749 299.13334826 372.24867004 C299.13249065 378.74326719 299.13392993 385.23786142 299.13629532 391.73245811 C299.13912661 399.68095287 299.13828656 407.62943777 299.13301457 415.57793143 C299.13041946 419.62173059 299.12929937 423.66551346 299.13266373 427.70931244 C299.17269043 480.32556627 299.17269043 480.32556627 296.3125 497.6875 C296.13879883 498.78795654 295.96509766 499.88841309 295.78613281 501.0222168 C288.71148242 543.80423393 271.08686471 581.29669414 244 615 C243.54302734 615.57411621 243.08605469 616.14823242 242.61523438 616.73974609 C232.59518241 629.25738879 221.14987565 640.55930482 209 651 C207.88252994 651.97363413 206.7653284 652.94757656 205.6484375 653.921875 C198.76081854 659.88705428 191.74851115 665.64029443 184.55078125 671.2265625 C182.15104151 673.09104185 179.7760244 674.98151688 177.41796875 676.8984375 C167.87672682 684.65165581 158.03336039 691.89778017 148 699 C147.22027832 699.55413574 146.44055664 700.10827148 145.63720703 700.67919922 C134.93515856 708.27653541 124.09181547 715.63681764 113.15185547 722.88671875 C103.17640997 729.51249951 93.36084256 736.35855851 83.54931641 743.22363281 C80.58671109 745.28798028 77.60873458 747.32883243 74.6262207 749.36425781 C55.96218284 762.10309237 37.89856138 775.41300016 20.91259766 790.32568359 C17.70758136 793.13140248 14.48052084 795.91122485 11.25 798.6875 C10.66549072 799.19265137 10.08098145 799.69780273 9.47875977 800.21826172 C7.05197567 802.30369517 4.66643821 804.22237452 2 806 C-5.09753439 800.61608265 -12.10345533 795.13967831 -19 789.5 C-31.23422076 779.51323588 -43.85132248 770.0789315 -56.59765625 760.75830078 C-58.86007016 759.10241613 -61.11766039 757.44013452 -63.375 755.77734375 C-73.74588243 748.1757176 -84.38107962 741.01574427 -95.1015625 733.91796875 C-102.69298102 728.88856182 -110.19874223 723.73739315 -117.70117188 718.57666016 C-120.05135883 716.96477535 -122.40758587 715.36209127 -124.765625 713.76171875 C-145.4816014 699.68901813 -165.72865885 685.00806072 -185 669 C-186.33011129 667.90679987 -187.66089411 666.81441651 -188.9921875 665.72265625 C-192.65821459 662.71588538 -196.31457661 659.69763301 -199.96777344 656.67529297 C-201.76601652 655.19288739 -203.57266781 653.72172351 -205.3828125 652.25390625 C-254.76967124 611.82491795 -288.52984852 553.8032079 -295.31892753 490.00288057 C-297.07778821 470.68421294 -297.2822504 451.45299094 -297.23213124 432.07557321 C-297.22333079 427.78836406 -297.22642837 423.50115915 -297.22793579 419.21394348 C-297.22897437 411.82121053 -297.22280672 404.42851343 -297.21146011 397.03578949 C-297.19506656 386.34772495 -297.1899831 375.65967738 -297.18748413 364.97160164 C-297.18312851 347.62249678 -297.16987793 330.27341096 -297.15087891 312.92431641 C-297.13246445 296.09130955 -297.11833535 279.25830789 -297.10986328 262.42529297 C-297.10907511 260.86367418 -297.10907511 260.86367418 -297.10827102 259.27050754 C-297.10566056 254.04667633 -297.10313324 248.82284508 -297.10064721 243.59901381 C-297.07998127 200.39932938 -297.04481462 157.19966568 -297 114 C-295.41414712 113.99500967 -293.82828964 113.99146698 -292.24243164 113.98852539 C-291.35930801 113.98639542 -290.47618439 113.98426544 -289.56629944 113.98207092 C-286.17850892 114.00573923 -282.81695491 114.20455772 -279.4375 114.4375 C-278.05958995 114.52926668 -276.68165948 114.62072717 -275.30371094 114.71191406 C-274.60080933 114.75932739 -273.89790771 114.80674072 -273.17370605 114.85559082 C-219.05514135 118.45093322 -165.22944331 111.85787146 -116 88 C-115.08589355 87.56123535 -114.17178711 87.1224707 -113.22998047 86.67041016 C-91.0510439 75.91287403 -70.1016795 62.61058503 -51 47 C-50.08089844 46.27039063 -49.16179687 45.54078125 -48.21484375 44.7890625 C-34.65460447 33.91798459 -22.5176573 21.64288963 -10.328125 9.29296875 C-8.17532081 7.17267335 -5.97290657 5.16302093 -3.6875 3.1875 C-2.99011719 2.58292969 -2.29273438 1.97835937 -1.57421875 1.35546875 C-1.05472656 0.90816406 -0.53523438 0.46085937 0 0 Z M-5.875 74.0625 C-14.84368955 81.91766324 -24.38091462 88.96794534 -34 96 C-34.73653809 96.54188965 -35.47307617 97.0837793 -36.23193359 97.64208984 C-46.66386611 105.29153404 -57.46622334 112.13607393 -68.64990234 118.63330078 C-70.79055985 119.87820009 -72.92122318 121.13859754 -75.05078125 122.40234375 C-123.11606891 150.57222966 -177.1416675 161.94134398 -232.31811523 162.84228516 C-235.47475759 162.97750105 -238.58542879 163.21737498 -241.7301178 163.50985718 C-242.71783204 163.60124655 -243.70554628 163.69263592 -244.72319126 163.78679466 C-245.47453815 163.85715242 -246.22588503 163.92751019 -247 164 C-247.04585924 203.27912051 -247.08106064 242.5582375 -247.10213066 281.83737947 C-247.10463183 286.48322047 -247.1072205 291.12906142 -247.10986328 295.77490234 C-247.1103879 296.69973733 -247.11091252 297.62457231 -247.11145304 298.5774326 C-247.12013634 313.51777196 -247.1358948 328.45809579 -247.15430559 343.39842597 C-247.17306254 358.74861002 -247.18412893 374.098786 -247.18817699 389.44898105 C-247.19091007 398.90745742 -247.19951656 408.36588992 -247.21583293 417.82435277 C-247.22647148 424.32583247 -247.22958522 430.82728976 -247.22700275 437.32877752 C-247.22573206 441.0699275 -247.22756618 444.81100124 -247.23841095 448.55213737 C-247.35853905 492.25387584 -240.9197034 532.52560656 -215 569 C-214.29488281 569.99644531 -213.58976562 570.99289062 -212.86328125 572.01953125 C-199.51125959 590.30964351 -183.83455439 607.03546272 -166 621 C-164.16387952 622.55922383 -162.33071006 624.12192725 -160.5 625.6875 C-152.30380263 632.52825388 -143.63671595 638.73220191 -135 645 C-133.52848925 646.07400425 -132.05712988 647.14821593 -130.5859375 648.22265625 C-118.52424621 657.00653671 -106.27577326 665.51892983 -94 674 C-93.26539551 674.50772949 -92.53079102 675.01545898 -91.77392578 675.53857422 C-85.46789666 679.89349933 -79.14852932 684.22745228 -72.796875 688.515625 C-61.45234898 696.18640037 -50.31178053 704.06306368 -39.33984375 712.25732422 C-34.5594711 715.81766436 -29.74809531 719.33615178 -24.9440918 722.86450195 C-21.08251822 725.70696518 -17.23869072 728.56906512 -13.42578125 731.4765625 C-12.70028076 732.02812012 -11.97478027 732.57967773 -11.22729492 733.14794922 C-9.86818036 734.18366049 -8.51260902 735.22404529 -7.16137695 736.27001953 C-3.88929038 738.76150887 -0.96040853 740.70496147 3 742 C4.00417969 741.17757812 5.00835938 740.35515625 6.04296875 739.5078125 C13.57829734 733.35147406 21.14978791 727.26216169 28.89453125 721.37109375 C30.90376666 719.83699829 32.90203313 718.28838253 34.88671875 716.72265625 C52.32164742 703.02541163 70.97864058 690.92723951 89.46582031 678.71386719 C96.26689557 674.21311831 102.97102865 669.63783231 109.53710938 664.79638672 C113.32952452 662.03026949 117.22943178 659.43011032 121.125 656.8125 C129.68676725 651.00595962 137.92398161 644.85285137 146.07910156 638.49169922 C147.87423029 637.09766814 149.67980568 635.71914633 151.4921875 634.34765625 C159.22513867 628.48821682 166.66815382 622.3486955 174 616 C174.78246094 615.33097656 175.56492187 614.66195312 176.37109375 613.97265625 C216.60075436 578.76298795 243.87973628 533.23480268 247.89216435 479.09781569 C248.00619439 477.36219287 248.00619439 477.36219287 248.12252808 475.59150696 C248.20599074 474.33964924 248.28945341 473.08779153 248.37544525 471.79799873 C249.19885721 458.40174106 249.2736257 445.02663265 249.23213124 431.60937202 C249.22328194 427.99771544 249.22643162 424.38606322 249.22793579 420.7743988 C249.22897145 414.55485975 249.22283557 408.33536348 249.21146011 402.11583519 C249.19502519 393.12406626 249.189979 384.13231747 249.18748413 375.14053515 C249.1831348 360.54281582 249.16990179 345.94511917 249.15087891 331.34741211 C249.13244782 317.1888846 249.11832697 303.0303633 249.10986328 288.87182617 C249.10933783 287.99529446 249.10881239 287.11876275 249.10827102 286.21566948 C249.10566045 281.81723282 249.10313315 277.41879612 249.10064721 273.0203594 C249.08000098 236.68022361 249.04485207 200.34011359 249 164 C244.62451525 163.06487678 240.35607996 162.74427972 235.89453125 162.5703125 C234.26763649 162.49881286 232.64076555 162.42676961 231.01391602 162.35424805 C229.74053879 162.29882339 229.74053879 162.29882339 228.44143677 162.24227905 C145.93379868 158.56154479 73.64005691 129.70898056 10.71875 76.21484375 C10.17162354 75.75207031 9.62449707 75.28929687 9.06079102 74.8125 C7.51477533 73.50295566 5.97404064 72.18718427 4.43359375 70.87109375 C-0.24577077 67.27331589 -2.16198565 70.73470502 -5.875 74.0625 Z " fill="#2A3651" transform="translate(520,89)"/>
<path d="M0 0 C5.03931139 -0.01664841 10.07861305 -0.0286694 15.11794508 -0.03687191 C16.91472369 -0.04036799 18.71150033 -0.04522749 20.50827086 -0.05165195 C33.89212136 -0.0977739 47.15274378 0.26133941 60.44061661 2.0222168 C61.19181778 2.11873535 61.94301895 2.21525391 62.7169838 2.31469727 C85.44984295 5.40908958 104.6644062 16.50841606 119.06561661 34.5222168 C136.62056278 58.99368769 142.41362477 91.39119202 137.84735489 120.80541992 C134.0049285 141.74733566 122.44809827 159.41488199 104.94061661 171.5847168 C102.44061661 173.0222168 102.44061661 173.0222168 100.44061661 173.0222168 C100.44061661 173.6822168 100.44061661 174.3422168 100.44061661 175.0222168 C101.15733536 175.27745117 101.87405411 175.53268555 102.61249161 175.7956543 C107.76305637 178.02946277 112.01968619 181.60604329 116.44061661 185.0222168 C117.23210098 185.63194336 118.02358536 186.24166992 118.83905411 186.86987305 C136.2417211 201.24997156 141.29646263 222.07173335 143.35687637 243.66894531 C146.32340073 278.29263688 147.29480305 313.39213064 124.29999161 341.6940918 C115.97719817 351.5664039 106.65683607 360.02717616 96.26874161 367.66040039 C92.69479354 370.32272442 89.20057777 373.08896107 85.69061661 375.8347168 C79.79724153 380.42811922 73.8819169 384.99099803 67.94061661 389.5222168 C55.53700159 398.99021837 43.20175973 408.5273538 31.1256752 418.41113281 C27.13698054 421.66841762 23.10209044 424.84225903 19.00311661 427.9597168 C8.02966859 436.33597947 -2.52991338 445.24520132 -13.03472519 454.19873047 C-16.26826575 456.95045375 -19.55324032 459.6242059 -22.87188339 462.2722168 C-29.10725147 467.34474824 -34.9263333 472.85285567 -40.76250839 478.3737793 C-41.39350449 478.96964844 -42.02450058 479.56551758 -42.67461777 480.17944336 C-43.96936779 481.44534662 -45.22993814 482.74687077 -46.45977402 484.07592773 C-47.36759628 485.05094238 -47.36759628 485.05094238 -48.29375839 486.0456543 C-48.827108 486.64039551 -49.36045761 487.23513672 -49.90996933 487.84790039 C-51.55938339 489.0222168 -51.55938339 489.0222168 -53.61724472 488.81103516 C-61.49119816 485.612953 -68.39218422 477.39100365 -74.58062363 471.60913086 C-79.87451469 466.68073883 -85.37310586 462.02253103 -90.92559433 457.38989258 C-93.1384232 455.5374916 -95.33631439 453.66776497 -97.53496933 451.79858398 C-102.80898626 447.31769926 -108.12478809 442.8941255 -113.49297714 438.52612305 C-115.84634398 436.60445662 -118.19181106 434.67462157 -120.53203964 432.73706055 C-129.44004564 425.36418195 -138.40528097 418.08749333 -147.55938339 411.0222168 C-148.34329453 410.41619629 -149.12720566 409.81017578 -149.93487167 409.18579102 C-161.0008951 400.64673774 -172.1828288 392.33793311 -183.65850449 384.35864258 C-185.45014484 383.0990177 -187.2210456 381.81610642 -188.98516464 380.51831055 C-209.74155374 365.267102 -228.99998694 354.99193232 -254.55938339 351.0222168 C-255.05438339 349.5372168 -255.05438339 349.5372168 -255.55938339 348.0222168 C-255.09789902 347.63291992 -254.63641464 347.24362305 -254.16094589 346.8425293 C-241.69488977 336.15029934 -230.1267077 324.99414304 -227.55938339 308.0222168 C-227.38805022 304.62788735 -227.36388848 301.23494285 -227.33819199 297.83677673 C-227.32675407 296.80122652 -227.31531616 295.76567631 -227.30353165 294.69874579 C-227.26671653 291.22318522 -227.23712668 287.74760412 -227.20782089 284.27197266 C-227.18354872 281.781548 -227.1590581 279.29112547 -227.13436508 276.80070496 C-226.91766928 254.03869739 -226.79636428 231.27583889 -226.70006943 208.51303768 C-226.68694339 205.46490814 -226.67356825 202.41677981 -226.65996933 199.36865234 C-226.65660017 198.61112868 -226.65323102 197.85360501 -226.64975977 197.07312609 C-226.59370759 184.8322959 -226.48171573 172.5926113 -226.34795594 160.35241073 C-226.21149481 147.75933967 -226.13281633 135.16686143 -226.10738564 122.57307154 C-226.09001441 114.82122608 -226.02938862 107.07232153 -225.9112829 99.32134581 C-225.82533856 93.35748349 -225.82059168 87.39621563 -225.84447479 81.43167305 C-225.84196605 79.00332512 -225.81420206 76.57483562 -225.75784302 74.1471405 C-225.37527654 56.77132479 -229.06525892 46.90381337 -240.79619026 33.99025929 C-243.149849 31.36315036 -245.22374775 28.59686612 -247.31328964 25.7565918 C-248.58199332 24.09450144 -249.8514748 22.43300438 -251.12188339 20.7722168 C-253.01859138 18.29001153 -254.91463417 15.80735 -256.80596542 13.32104492 C-257.98270079 11.77827965 -259.16607592 10.24055803 -260.35577011 8.70776367 C-261.18165634 7.63365234 -261.18165634 7.63365234 -262.02422714 6.5378418 C-262.51399033 5.90652344 -263.00375351 5.27520508 -263.508358 4.62475586 C-264.55938339 3.0222168 -264.55938339 3.0222168 -264.55938339 1.0222168 C-232.42364841 0.89383257 -200.28791005 0.7663382 -168.15216682 0.64003453 C-164.33209511 0.62501967 -160.51202342 0.60999746 -156.69195175 0.5949707 C-155.93165249 0.59198009 -155.17135323 0.58898947 -154.38801459 0.58590823 C-142.18239395 0.53788038 -129.97677574 0.4892611 -117.77115836 0.44041139 C-105.18600508 0.39005631 -92.60084929 0.34036423 -80.0156911 0.29124975 C-72.97256687 0.26374544 -65.92944402 0.23595842 -58.88632393 0.20741272 C-42.56484633 0.14139599 -26.24336422 0.08122885 -9.92182493 0.03251648 C-6.61454724 0.02238577 -3.30727401 0.01126298 0 0 Z M-169.55938339 62.0222168 C-170.30778472 66.98699088 -170.6992139 71.77802157 -170.67290878 76.79345703 C-170.67312782 77.90689735 -170.67312782 77.90689735 -170.67335129 79.04283142 C-170.67266013 81.47218856 -170.66490542 83.90146697 -170.65703964 86.33081055 C-170.65517263 88.02474424 -170.65375006 89.71867848 -170.65275192 91.41261292 C-170.64894907 95.85295118 -170.63913802 100.2932563 -170.62804794 104.73358154 C-170.6159787 110.07093369 -170.61142095 115.40829697 -170.60559464 120.74565887 C-170.59592493 128.83786784 -170.5767528 136.9300042 -170.55938339 145.0222168 C-148.44938339 145.0222168 -126.33938339 145.0222168 -103.55938339 145.0222168 C-103.55938339 164.8222168 -103.55938339 184.6222168 -103.55938339 205.0222168 C-126.32938339 205.0222168 -149.09938339 205.0222168 -172.55938339 205.0222168 C-172.70478779 223.91768721 -172.70478779 223.91768721 -172.80352402 242.81323242 C-172.83342572 250.51889231 -172.86881779 258.22425544 -172.93658066 265.9296875 C-172.99086523 272.14127672 -173.02079689 278.35254775 -173.03376961 284.56435585 C-173.04301573 286.93548912 -173.0610711 289.30660477 -173.08803368 291.67760277 C-173.12427519 294.99622752 -173.12933057 298.31353375 -173.12701035 301.63232422 C-173.14498672 302.61487686 -173.1629631 303.5974295 -173.18148422 304.60975647 C-173.14661405 309.21215978 -173.12083304 311.30660359 -170.20627975 315.0214386 C-169.33280396 315.6816954 -168.45932816 316.34195221 -167.55938339 317.0222168 C-166.5964537 317.81499023 -165.63352402 318.60776367 -164.64141464 319.42456055 C-163.5542412 320.27304528 -162.46423706 321.11791167 -161.37188339 321.9597168 C-160.77166367 322.42716309 -160.17144394 322.89460938 -159.55303574 323.3762207 C-157.5580525 324.92866377 -155.5591483 326.47593892 -153.55938339 328.0222168 C-150.59981952 330.31229949 -147.64137789 332.60381729 -144.68438339 334.8972168 C-143.92303085 335.48744629 -143.16167831 336.07767578 -142.37725449 336.68579102 C-136.69093507 341.1079488 -131.0974354 345.63370062 -125.52642441 350.19970703 C-120.80035236 354.05640151 -115.98601453 357.77920389 -111.12188339 361.4597168 C-104.49214599 366.47784314 -98.04893966 371.68524324 -91.6555748 377.00024414 C-86.49731114 381.2790818 -81.24097683 385.38395998 -75.89922714 389.43237305 C-73.3463221 391.3877069 -70.85527708 393.40822294 -68.37578964 395.45581055 C-67.65915146 396.04676514 -66.94251328 396.63771973 -66.20415878 397.24658203 C-64.80686931 398.40338184 -63.41388846 399.56541213 -62.02593613 400.73339844 C-58.67489686 403.50613296 -55.78901985 405.72079019 -51.55938339 407.0222168 C-50.98575058 406.52334961 -50.41211777 406.02448242 -49.82110214 405.51049805 C-33.51144776 391.72525147 -14.96783556 380.59830406 2.98749161 369.11206055 C17.04224689 360.10610085 30.42832099 350.47789071 43.44061661 340.0222168 C44.84247208 338.89686523 44.84247208 338.89686523 46.27264786 337.7487793 C53.2083325 332.12305559 60.00892754 326.33591687 66.74213028 320.46972656 C67.90407054 319.47948022 69.08803447 318.51466103 70.28949356 317.57275391 C74.56915526 314.1527672 76.8726429 311.06593451 79.12811661 305.9597168 C79.41646378 305.30849854 79.70481094 304.65728027 80.0018959 303.98632812 C89.67081697 281.59585783 93.70551846 254.30074395 85.06561661 230.9597168 C80.5552986 220.25261405 73.91313994 212.94009716 63.24953079 208.10224915 C53.72706103 204.4408431 43.20501135 204.67954792 33.14764786 204.57299805 C31.70661359 204.5516726 30.26558873 204.52970222 28.82457352 204.50712585 C25.82692324 204.46209992 22.82928031 204.42321393 19.83148575 204.38916016 C16.01214682 204.34550241 12.19314271 204.28870844 8.37404728 204.2276125 C5.40650717 204.18118518 2.43890992 204.14051113 -0.52873802 204.10164452 C-1.93640111 204.08276698 -3.34404559 204.0624379 -4.75166512 204.04055214 C-6.72419742 204.01099375 -8.69684873 203.98974025 -10.66949081 203.96875 C-11.78579376 203.95479691 -12.90209671 203.94084381 -14.05222702 203.9264679 C-18.26065087 204.04136211 -22.38499832 204.49786933 -26.55938339 205.0222168 C-26.54978844 205.5786106 -26.54019348 206.13500441 -26.53030777 206.70825863 C-26.30109907 220.32515485 -26.16355259 233.94041624 -26.12154007 247.55921841 C-26.0985203 254.14597536 -26.04633424 260.72969012 -25.92510605 267.31542969 C-25.80899518 273.68361587 -25.77261753 280.04792725 -25.7891655 286.41710091 C-25.78188675 288.83433725 -25.74692129 291.25166951 -25.68250656 293.6680584 C-25.39166152 305.20665985 -25.20958734 314.59287707 -33.16376114 323.58765507 C-35.89241969 326.33346432 -38.7206443 328.90427105 -41.6825676 331.39552498 C-44.23341226 333.60641757 -46.36819337 336.02005742 -48.55938339 338.5847168 C-49.15750839 339.26663086 -49.75563339 339.94854492 -50.37188339 340.65112305 C-50.76375839 341.10358398 -51.15563339 341.55604492 -51.55938339 342.0222168 C-55.05425149 340.79364542 -57.37835566 339.57792881 -59.93438339 336.8972168 C-60.53250839 336.27331055 -61.13063339 335.6494043 -61.74688339 335.0065918 C-64.08395305 332.44790347 -66.35846457 329.84665013 -68.56129169 327.17139339 C-70.47143813 324.96123647 -70.47143813 324.96123647 -72.84298992 323.44818211 C-76.37638504 320.81913432 -79.01504249 318.2777266 -80.07926488 313.86805606 C-80.9537773 307.05863787 -80.7479035 300.18691474 -80.67290878 293.33642578 C-80.68023705 291.00998936 -80.69151849 288.68356254 -80.7064476 286.35716248 C-80.73571605 280.05578362 -80.7097832 273.75570467 -80.67385793 267.45440555 C-80.648553 261.5321246 -80.66468313 255.61007673 -80.68056517 249.6877848 C-80.71066555 237.96277805 -80.70079479 226.2381628 -80.66558456 214.51318359 C-80.6314809 203.12803153 -80.61632816 191.74311246 -80.62652206 180.35791016 C-80.62745579 179.30406049 -80.62745579 179.30406049 -80.62840838 178.22892093 C-80.63164786 174.70411547 -80.63525843 171.17931051 -80.63905346 167.65450561 C-80.67002433 138.44355876 -80.62864045 109.23311856 -80.55938339 80.0222168 C-62.40938339 80.0222168 -44.25938339 80.0222168 -25.55938339 80.0222168 C-25.55938339 101.4722168 -25.55938339 122.9222168 -25.55938339 145.0222168 C-18.86224398 145.87759093 -18.86224398 145.87759093 -12.24297714 146.1550293 C-10.75410995 146.15829224 -10.75410995 146.15829224 -9.23516464 146.16162109 C-8.16653183 146.15686768 -7.09789902 146.15211426 -5.99688339 146.1472168 C-4.28758652 146.14105347 -4.28758652 146.14105347 -2.54375839 146.13476562 C1.45122353 146.11029689 5.44585241 146.06914679 9.44061661 146.0222168 C10.62575851 146.0093161 10.62575851 146.0093161 11.83484268 145.99615479 C17.00689286 145.9379397 22.17812708 145.85873382 27.34952164 145.75775146 C29.06031941 145.72603607 30.77120693 145.69880596 32.48215103 145.67633057 C46.53536388 145.48185221 59.73470617 144.88358993 70.19061661 134.2409668 C78.89246416 123.62471278 80.18872802 110.25270575 79.44061661 97.0222168 C78.07141178 86.77638748 74.93436708 77.28228938 66.62811661 70.6472168 C56.63418468 63.93402533 46.06063862 61.69494748 34.15176773 61.78170776 C33.27342683 61.77999891 32.39508593 61.77829006 31.49012864 61.77652943 C28.57754274 61.77326249 25.66519262 61.78419171 22.75262833 61.79516602 C20.65265788 61.79573073 18.55268704 61.79541238 16.45271683 61.79428101 C10.77370315 61.79370887 5.09477452 61.80544076 -0.58421946 61.81942892 C-6.52726081 61.83195939 -12.47030426 61.83310861 -18.41335678 61.83547974 C-29.65761211 61.8416877 -40.90182839 61.85808928 -52.14606655 61.87817872 C-64.95136979 61.90055899 -77.75667494 61.9115365 -90.56199288 61.92156959 C-116.894478 61.9424561 -143.22692851 61.97761878 -169.55938339 62.0222168 Z " fill="#2A3651" transform="translate(574.559383392334,276.977783203125)"/>
</svg>
